<svg xmlns="http://www.w3.org/2000/svg" viewBox="0 0 371.276 113.386">
  <path fill="#ffb81c" d="M0 0h371.276v113.386H0z"/>
  <g fill="#fff">
    <path d="M118.6144 52.3981h6.91v1.094h-5.635v4.005h5.108v1.095h-5.108v5.186h-1.275zm10.91249 10.6165a2.03248 2.03248 0 0 1-1.307-.401 1.34935 1.34935 0 0 1-.503-1.117 1.55147 1.55147 0 0 1 .319-1.019 1.883 1.883 0 0 1 .975-.579 6.644 6.644 0 0 1 1.689-.205l1.314-.023v1.447a1.3131 1.3131 0 0 1-.228.693 2.49252 2.49252 0 0 1-.582.614 2.9746 2.9746 0 0 1-.8.433 2.59014 2.59014 0 0 1-.877.157m-.346.921a3.57182 3.57182 0 0 0 1.633-.378 2.87614 2.87614 0 0 0 1.239-1.346l.087 1.567h1.054v-5.666a2.77544 2.77544 0 0 0-.353-1.453 2.18859 2.18859 0 0 0-1.044-.881 4.30244 4.30244 0 0 0-1.696-.295 4.40121 4.40121 0 0 0-1.676.287 2.41975 2.41975 0 0 0-1.086.827 2.45429 2.45429 0 0 0-.433 1.302h1.118a1.61166 1.61166 0 0 1 .704-1.122 2.4083 2.4083 0 0 1 1.311-.349 2.02363 2.02363 0 0 1 1.491.467 1.70718 1.70718 0 0 1 .484 1.271v.677l-1.574.048a5.56962 5.56962 0 0 0-2.995.708 2.28954 2.28954 0 0 0-.925 2.007 2.26241 2.26241 0 0 0 .335 1.251 2.16806 2.16806 0 0 0 .933.799 3.2762 3.2762 0 0 0 1.393.279m9.488-8.4515a3.62564 3.62564 0 0 0-2.018.534 3.36366 3.36366 0 0 0-1.248 1.492 5.43541 5.43541 0 0 0-.425 2.223 5.16969 5.16969 0 0 0 .468 2.322 3.2336 3.2336 0 0 0 1.303 1.409 3.83731 3.83731 0 0 0 1.92.472 3.63687 3.63687 0 0 0 1.515-.308 2.96981 2.96981 0 0 0 1.137-.885 2.84524 2.84524 0 0 0 .575-1.381h-1.11a1.79683 1.79683 0 0 1-.346.807 1.95951 1.95951 0 0 1-.72.583 2.32536 2.32536 0 0 1-1.027.215 2.1678 2.1678 0 0 1-1.885-.885 3.97317 3.97317 0 0 1-.634-2.357 3.60979 3.60979 0 0 1 .697-2.435 2.29385 2.29385 0 0 1 1.806-.791 2.35311 2.35311 0 0 1 1.027.212 1.90338 1.90338 0 0 1 .72.579 1.87578 1.87578 0 0 1 .355.823h1.125a3.02867 3.02867 0 0 0-.575-1.414 2.96458 2.96458 0 0 0-1.133-.901 3.62271 3.62271 0 0 0-1.527-.314m7.9834 8.4515a3.05585 3.05585 0 0 0 1.105-.177 2.15192 2.15192 0 0 0 .85-.563 2.10516 2.10516 0 0 0 .492-.96l.126 1.543h.992v-8.138h-1.22v5.289a1.88769 1.88769 0 0 1-.582 1.515 2.29051 2.29051 0 0 1-1.543.5 2.14433 2.14433 0 0 1-1.598-.532 1.9 1.9 0 0 1-.519-1.388v-5.384h-1.228v5.494a2.8853 2.8853 0 0 0 .24 1.215 2.39917 2.39917 0 0 0 .669.874 2.95364 2.95364 0 0 0 .996.528 4.26955 4.26955 0 0 0 1.22.184m7.59289-.0703a2.105 2.105 0 0 0 .323-.028 2.27075 2.27075 0 0 0 .354-.082v-.803l-.457-.008a.88011.88011 0 0 1-.661-.334 1.55072 1.55072 0 0 1-.252-.98v-9.547h-1.212v9.649a4.01246 4.01246 0 0 0 .079.811 1.79163 1.79163 0 0 0 .287.684 1.38909 1.38909 0 0 0 .583.469 2.33926 2.33926 0 0 0 .956.169m5.79551-8.233h-1.841v-2.336h-.913l-.292 2.344h-1.353v.921h1.322v5.289a2.949 2.949 0 0 0 .173 1.086 1.2389 1.2389 0 0 0 .602.654 2.705 2.705 0 0 0 1.208.22 6.15378 6.15378 0 0 0 .705-.036 2.09332 2.09332 0 0 0 .444-.09v-.85h-.834a2.8454 2.8454 0 0 1-.649-.059.45162.45162 0 0 1-.323-.276 1.92748 1.92748 0 0 1-.09-.689v-5.249h1.841zm2.786 10.74369a2.91623 2.91623 0 0 0 .999-.165 2.09021 2.09021 0 0 0 .823-.564 3.68938 3.68938 0 0 0 .657-1.105l3.463-8.902h-1.204l-2.495 6.549-2.527-6.549h-1.243l3.179 7.981-.322.858a2.407 2.407 0 0 1-.177.334 1.20229 1.20229 0 0 1-.287.308 1.39 1.39 0 0 1-.477.216 2.54392 2.54392 0 0 1-.728.063l-.834-.008v.803a3.37427 3.37427 0 0 0 1.173.181m14.16578-3.4314a2.1967 2.1967 0 0 1-1.401-.426 2.4549 2.4549 0 0 1-.799-1.153 4.96425 4.96425 0 0 1-.256-1.656 4.72575 4.72575 0 0 1 .292-1.764 2.33523 2.33523 0 0 1 .838-1.096 2.28484 2.28484 0 0 1 1.326-.374 2.16493 2.16493 0 0 1 1.377.42 2.43941 2.43941 0 0 1 .787 1.153 5.09319 5.09319 0 0 1 .252 1.661 4.77462 4.77462 0 0 1-.287 1.755 2.36416 2.36416 0 0 1-.827 1.102 2.20845 2.20845 0 0 1-1.302.378m-.008.991a3.60659 3.60659 0 0 0 2.019-.53 3.29307 3.29307 0 0 0 1.215-1.476 5.464 5.464 0 0 0 .41-2.188 5.40147 5.40147 0 0 0-.453-2.341 3.23306 3.23306 0 0 0-1.267-1.434 3.6972 3.6972 0 0 0-1.916-.483 3.64238 3.64238 0 0 0-2.023.531 3.316 3.316 0 0 0-1.239 1.491 5.52329 5.52329 0 0 0-.422 2.236 5.24479 5.24479 0 0 0 .457 2.306 3.17909 3.17909 0 0 0 1.287 1.412 3.817 3.817 0 0 0 1.932.476m7.56369-8.2953v-1.227a1.52429 1.52429 0 0 1 .185-.838.7824.7824 0 0 1 .704-.279h1.251v-.898h-1.44a1.90083 1.90083 0 0 0-1.44.496 2.031 2.031 0 0 0-.472 1.456v1.29h-1.779v.921h1.779v7.217h1.228v-7.217h2.046v-.921zm8.9474 8.138v-9.24l3.424 9.24h1.235l3.455-9.334v9.334h1.276v-11.38h-1.637l-3.715 9.752-3.66-9.752h-1.653v11.38zm14.44051-.7637a2.03248 2.03248 0 0 1-1.307-.401 1.34935 1.34935 0 0 1-.503-1.117 1.55147 1.55147 0 0 1 .319-1.019 1.883 1.883 0 0 1 .975-.579 6.644 6.644 0 0 1 1.689-.205l1.314-.023v1.447a1.30434 1.30434 0 0 1-.228.693 2.49252 2.49252 0 0 1-.582.614 2.97469 2.97469 0 0 1-.8.433 2.58589 2.58589 0 0 1-.877.157m-.346.921a3.57182 3.57182 0 0 0 1.633-.378 2.88268 2.88268 0 0 0 1.24-1.346l.086 1.567h1.054v-5.666a2.77544 2.77544 0 0 0-.353-1.453 2.18859 2.18859 0 0 0-1.044-.881 4.30244 4.30244 0 0 0-1.696-.295 4.40121 4.40121 0 0 0-1.676.287 2.41983 2.41983 0 0 0-1.086.827 2.45429 2.45429 0 0 0-.433 1.302h1.118a1.61166 1.61166 0 0 1 .704-1.122 2.4083 2.4083 0 0 1 1.311-.349 2.02363 2.02363 0 0 1 1.491.467 1.70718 1.70718 0 0 1 .484 1.271v.677l-1.574.048a5.56962 5.56962 0 0 0-2.995.708 2.29193 2.29193 0 0 0-.925 2.007 2.26234 2.26234 0 0 0 .335 1.251 2.168 2.168 0 0 0 .933.799 3.2762 3.2762 0 0 0 1.393.279m7.47-.1573v-5.502a1.48122 1.48122 0 0 1 .315-.967 1.8786 1.8786 0 0 1 .834-.575 3.24215 3.24215 0 0 1 1.11-.188 1.95364 1.95364 0 0 1 1.393.495 2.019 2.019 0 0 1 .527 1.535v5.202h1.228v-5.312a3.26353 3.26353 0 0 0-.386-1.676 2.37267 2.37267 0 0 0-1.035-.964 3.27356 3.27356 0 0 0-1.436-.311 3.50632 3.50632 0 0 0-1.161.18 2.80642 2.80642 0 0 0-.874.481 2.47785 2.47785 0 0 0-.563.653v-1.189h-1.18v8.138zm10.09389-.7637a2.03251 2.03251 0 0 1-1.307-.401 1.34935 1.34935 0 0 1-.503-1.117 1.55153 1.55153 0 0 1 .319-1.019 1.883 1.883 0 0 1 .975-.579 6.64389 6.64389 0 0 1 1.689-.205l1.314-.023v1.447a1.31292 1.31292 0 0 1-.228.693 2.49252 2.49252 0 0 1-.582.614 2.97439 2.97439 0 0 1-.8.433 2.59015 2.59015 0 0 1-.877.157m-.346.921a3.57175 3.57175 0 0 0 1.633-.378 2.876 2.876 0 0 0 1.239-1.346l.087 1.567h1.054v-5.666a2.77544 2.77544 0 0 0-.353-1.453 2.1932 2.1932 0 0 0-1.044-.881 4.30248 4.30248 0 0 0-1.696-.295 4.40121 4.40121 0 0 0-1.676.287 2.41972 2.41972 0 0 0-1.086.827 2.4542 2.4542 0 0 0-.433 1.302h1.118a1.61163 1.61163 0 0 1 .704-1.122 2.40828 2.40828 0 0 1 1.311-.349 2.02365 2.02365 0 0 1 1.491.467 1.70718 1.70718 0 0 1 .484 1.271v.677l-1.574.048a5.56968 5.56968 0 0 0-2.995.708 2.28954 2.28954 0 0 0-.925 2.007 2.26241 2.26241 0 0 0 .335 1.251 2.16806 2.16806 0 0 0 .933.799 3.27624 3.27624 0 0 0 1.393.279m9.5699-4.1401a2.46271 2.46271 0 0 1-1.578-.444 1.51667 1.51667 0 0 1-.555-1.256 1.56615 1.56615 0 0 1 .586-1.318 2.467 2.467 0 0 1 1.547-.452 2.411 2.411 0 0 1 1.515.448 1.57345 1.57345 0 0 1 .578 1.322 1.47789 1.47789 0 0 1-.578 1.275 2.49473 2.49473 0 0 1-1.515.425m.197 5.832a4.8321 4.8321 0 0 1-2.232-.393 1.2022 1.2022 0 0 1-.72-1.086 1.16845 1.16845 0 0 1 .248-.731 1.74014 1.74014 0 0 1 .595-.501 1.26475 1.26475 0 0 1 .637-.162l2.4.15a1.94659 1.94659 0 0 1 1.165.391 1.07917 1.07917 0 0 1 .386.853 1.19884 1.19884 0 0 1-.653 1.114 3.7738 3.7738 0 0 1-1.826.365m-.229.842a5.07447 5.07447 0 0 0 2.947-.692 2.11362 2.11362 0 0 0 .965-1.787 1.88877 1.88877 0 0 0-.681-1.542 3.21089 3.21089 0 0 0-1.901-.629c-.373-.027-.71-.049-1.011-.064q-.453-.0225-.775-.038a7.24263 7.24263 0 0 1-1.236-.162q-.354-.099-.354-.335c0-.136.117-.267.35-.39a3.2443 3.2443 0 0 1 1.287-.207c.058.005.126.007.205.007h.196a4.54462 4.54462 0 0 0 1.854-.33 2.32236 2.32236 0 0 0 1.459-2.212 2.452 2.452 0 0 0-.078-.595 2.84588 2.84588 0 0 0-.212-.577l1.432-.285v-1.227c-.094.042-.235.102-.421.181-.187.079-.387.161-.602.248-.215.086-.411.167-.587.24-.175.074-.303.129-.382.165a3.53679 3.53679 0 0 0-1.007-.539 4.13938 4.13938 0 0 0-1.322-.185 4.95366 4.95366 0 0 0-1.873.315 2.57148 2.57148 0 0 0-1.177.897 2.34226 2.34226 0 0 0-.405 1.369 2.24631 2.24631 0 0 0 .397 1.288 2.92446 2.92446 0 0 0 1.091.948 2.31229 2.31229 0 0 0-1.032.468.91292.91292 0 0 0-.346.681.77453.77453 0 0 0 .138.476 1.14639 1.14639 0 0 0 .327.299c.125.077.236.143.33.201a2.4766 2.4766 0 0 1-.322.193 3.85472 3.85472 0 0 0-.524.342 2.00122 2.00122 0 0 0-.48.532 1.4036 1.4036 0 0 0-.201.766 1.75426 1.75426 0 0 0 1.051 1.625 6.27739 6.27739 0 0 0 2.9.555m6.65869-7.3505a3.09718 3.09718 0 0 1 .252-1.267 2.424 2.424 0 0 1 .79-1.011 2.55426 2.55426 0 0 1 2.665-.043 2.14011 2.14011 0 0 1 .763.96 3.51187 3.51187 0 0 1 .252 1.361h-4.722m5.918.874V59.49a5.12144 5.12144 0 0 0-.409-2.141 3.08979 3.08979 0 0 0-1.189-1.382 3.54524 3.54524 0 0 0-1.904-.483 3.59077 3.59077 0 0 0-1.987.53 3.373 3.373 0 0 0-1.255 1.504 5.52834 5.52834 0 0 0-.433 2.27 4.8401 4.8401 0 0 0 .476 2.235 3.36315 3.36315 0 0 0 1.33 1.421 3.87557 3.87557 0 0 0 1.971.492 3.99435 3.99435 0 0 0 1.484-.28 3.18229 3.18229 0 0 0 1.204-.83 2.70721 2.70721 0 0 0 .649-1.369h-1.181a1.67053 1.67053 0 0 1-.747 1.105 2.54385 2.54385 0 0 1-1.425.39 2.252 2.252 0 0 1-2.242-1.472 3.95318 3.95318 0 0 1-.268-1.487zm3.05361 3.7853v-5.502a1.569 1.569 0 0 1 .303-.999 1.73227 1.73227 0 0 1 .755-.558 2.47819 2.47819 0 0 1 .893-.173 2.00827 2.00827 0 0 1 .804.173 1.70678 1.70678 0 0 1 .672.514 1.33819 1.33819 0 0 1 .272.855v5.69h1.227v-5.502a1.57047 1.57047 0 0 1 .319-1.045 1.71875 1.71875 0 0 1 .771-.532 2.69745 2.69745 0 0 1 .862-.153 2.13251 2.13251 0 0 1 .858.173 1.38947 1.38947 0 0 1 .653.609 2.52779 2.52779 0 0 1 .252 1.248v5.202h1.228v-5.312a3.901 3.901 0 0 0-.248-1.506 2.21877 2.21877 0 0 0-.65-.906 2.36335 2.36335 0 0 0-.861-.445 3.34965 3.34965 0 0 0-.886-.125 2.941 2.941 0 0 0-1.463.361 2.76685 2.76685 0 0 0-1.024.976 1.97766 1.97766 0 0 0-.59-.74 2.77055 2.77055 0 0 0-.849-.449 3.01374 3.01374 0 0 0-.921-.148 2.61576 2.61576 0 0 0-1.523.401 3.05814 3.05814 0 0 0-.902.944v-1.189h-1.18v8.138zm12.83569-4.6593a3.12975 3.12975 0 0 1 .252-1.267 2.42407 2.42407 0 0 1 .79-1.011 2.55428 2.55428 0 0 1 2.665-.043 2.13345 2.13345 0 0 1 .763.96 3.51187 3.51187 0 0 1 .252 1.361h-4.722m5.918.874V59.49a5.1216 5.1216 0 0 0-.409-2.141 3.08973 3.08973 0 0 0-1.189-1.382 3.54528 3.54528 0 0 0-1.904-.483 3.59076 3.59076 0 0 0-1.987.53 3.38109 3.38109 0 0 0-1.256 1.504 5.5446 5.5446 0 0 0-.432 2.27 4.84023 4.84023 0 0 0 .476 2.235 3.36332 3.36332 0 0 0 1.33 1.421 3.87549 3.87549 0 0 0 1.971.492 3.99428 3.99428 0 0 0 1.484-.28 3.18232 3.18232 0 0 0 1.204-.83 2.71654 2.71654 0 0 0 .65-1.369h-1.182a1.67057 1.67057 0 0 1-.747 1.105 2.54288 2.54288 0 0 1-1.424.39 2.25216 2.25216 0 0 1-2.243-1.472 3.95337 3.95337 0 0 1-.268-1.487zm3.0542 3.7853v-5.502a1.48116 1.48116 0 0 1 .315-.967 1.87854 1.87854 0 0 1 .834-.575 3.24239 3.24239 0 0 1 1.11-.188 1.9536 1.9536 0 0 1 1.393.495 2.01893 2.01893 0 0 1 .527 1.535v5.202h1.228v-5.312a3.26363 3.26363 0 0 0-.386-1.676 2.37283 2.37283 0 0 0-1.035-.964 3.27364 3.27364 0 0 0-1.436-.311 3.50641 3.50641 0 0 0-1.161.18 2.80665 2.80665 0 0 0-.874.481 2.478 2.478 0 0 0-.563.653v-1.189h-1.18v8.138zm11.23312-8.146h-1.841v-2.336h-.913l-.291 2.344h-1.354v.921h1.322v5.289a2.94939 2.94939 0 0 0 .173 1.086 1.239 1.239 0 0 0 .602.654 2.70492 2.70492 0 0 0 1.208.22 6.15384 6.15384 0 0 0 .705-.036 2.09332 2.09332 0 0 0 .444-.09v-.85h-.834a2.84548 2.84548 0 0 1-.649-.059.45162.45162 0 0 1-.323-.276 1.92775 1.92775 0 0 1-.09-.689v-5.249h1.841zm9.64883 8.30331a5.64184 5.64184 0 0 0 2.274-.412 3.34714 3.34714 0 0 0 1.425-1.107 2.607 2.607 0 0 0 .488-1.535 4.154 4.154 0 0 0-.114-.951 2.75124 2.75124 0 0 0-1.213-1.693 4.0246 4.0246 0 0 0-1.318-.52l-2.227-.543a3.87707 3.87707 0 0 1-1.601-.704 1.35236 1.35236 0 0 1-.445-1.051 1.79522 1.79522 0 0 1 .228-.919 1.9777 1.9777 0 0 1 .614-.654 2.85008 2.85008 0 0 1 .862-.389 3.62511 3.62511 0 0 1 .964-.131 4.00641 4.00641 0 0 1 1.302.205 2.12814 2.12814 0 0 1 1.492 1.983h1.283a2.94676 2.94676 0 0 0-.465-1.582 3.379 3.379 0 0 0-1.365-1.212 4.87 4.87 0 0 0-2.247-.465 4.81139 4.81139 0 0 0-2.058.418 3.40068 3.40068 0 0 0-1.401 1.153 2.90864 2.90864 0 0 0-.508 1.696 2.44949 2.44949 0 0 0 .712 1.814 3.97844 3.97844 0 0 0 1.956.972l2.298.551a3.76123 3.76123 0 0 1 1.094.429 1.78575 1.78575 0 0 1 .898 1.618 1.56771 1.56771 0 0 1-.382 1.046 2.43346 2.43346 0 0 1-1.043.692 4.31866 4.31866 0 0 1-1.511.245 4.10379 4.10379 0 0 1-1.385-.232 2.78478 2.78478 0 0 1-1.086-.693 2.38436 2.38436 0 0 1-.598-1.146h-1.299a3.2375 3.2375 0 0 0 .511 1.351 3.5488 3.5488 0 0 0 .996.972 4.7212 4.7212 0 0 0 1.338.594 5.82826 5.82826 0 0 0 1.531.2m9.39831-8.4515a3.62554 3.62554 0 0 0-2.018.534 3.36357 3.36357 0 0 0-1.248 1.492 5.43558 5.43558 0 0 0-.425 2.223 5.16983 5.16983 0 0 0 .468 2.322 3.23368 3.23368 0 0 0 1.303 1.409 3.83726 3.83726 0 0 0 1.92.472 3.63681 3.63681 0 0 0 1.515-.308 2.96962 2.96962 0 0 0 1.137-.885 2.84515 2.84515 0 0 0 .575-1.381h-1.11a1.79668 1.79668 0 0 1-.346.807 1.95964 1.95964 0 0 1-.72.583 2.32544 2.32544 0 0 1-1.027.215 2.16778 2.16778 0 0 1-1.885-.885 3.97317 3.97317 0 0 1-.634-2.357 3.60974 3.60974 0 0 1 .697-2.435 2.29382 2.29382 0 0 1 1.806-.791 2.353 2.353 0 0 1 1.027.212 1.90322 1.90322 0 0 1 .72.579 1.87572 1.87572 0 0 1 .355.823h1.125a3.0288 3.0288 0 0 0-.575-1.414 2.9644 2.9644 0 0 0-1.133-.901 3.62276 3.62276 0 0 0-1.527-.314m6.23669.1559h-1.196v8.138h1.196zm.039-3.234h-1.291v1.354h1.291zm3.098 6.713a3.097 3.097 0 0 1 .252-1.267 2.424 2.424 0 0 1 .79-1.011 2.55428 2.55428 0 0 1 2.665-.043 2.14011 2.14011 0 0 1 .763.96 3.51187 3.51187 0 0 1 .252 1.361h-4.722m5.918.874v-.503a5.1216 5.1216 0 0 0-.409-2.141 3.08979 3.08979 0 0 0-1.189-1.382 3.54528 3.54528 0 0 0-1.904-.483 3.59082 3.59082 0 0 0-1.987.53 3.37469 3.37469 0 0 0-1.256 1.504 5.52856 5.52856 0 0 0-.432 2.27 4.84023 4.84023 0 0 0 .476 2.235 3.36325 3.36325 0 0 0 1.33 1.421 3.87549 3.87549 0 0 0 1.971.492 3.99813 3.99813 0 0 0 1.484-.28 3.1824 3.1824 0 0 0 1.204-.83 2.70712 2.70712 0 0 0 .649-1.369h-1.181a1.67057 1.67057 0 0 1-.747 1.105 2.544 2.544 0 0 1-1.425.39 2.252 2.252 0 0 1-2.242-1.472 3.95337 3.95337 0 0 1-.268-1.487zm3.05349 3.7853v-5.502a1.48116 1.48116 0 0 1 .315-.967 1.87854 1.87854 0 0 1 .834-.575 3.24239 3.24239 0 0 1 1.11-.188 1.95359 1.95359 0 0 1 1.393.495 2.0189 2.0189 0 0 1 .527 1.535v5.202h1.228v-5.312a3.26363 3.26363 0 0 0-.386-1.676 2.37288 2.37288 0 0 0-1.035-.964 3.27368 3.27368 0 0 0-1.436-.311 3.50649 3.50649 0 0 0-1.161.18 2.80659 2.80659 0 0 0-.874.481 2.47762 2.47762 0 0 0-.563.653v-1.189h-1.18v8.138zm10.76633-8.2942a3.62554 3.62554 0 0 0-2.018.534 3.36363 3.36363 0 0 0-1.248 1.492 5.43558 5.43558 0 0 0-.425 2.223 5.16983 5.16983 0 0 0 .468 2.322 3.23368 3.23368 0 0 0 1.303 1.409 3.83726 3.83726 0 0 0 1.92.472 3.63685 3.63685 0 0 0 1.515-.308 2.96958 2.96958 0 0 0 1.137-.885 2.84506 2.84506 0 0 0 .575-1.381h-1.11a1.79681 1.79681 0 0 1-.346.807 1.95964 1.95964 0 0 1-.72.583 2.32544 2.32544 0 0 1-1.027.215 2.1678 2.1678 0 0 1-1.885-.885 3.97317 3.97317 0 0 1-.634-2.357 3.60974 3.60974 0 0 1 .697-2.435 2.29241 2.29241 0 0 1 1.806-.791 2.34991 2.34991 0 0 1 1.027.212 1.9108 1.9108 0 0 1 .72.579 1.87582 1.87582 0 0 1 .355.823h1.125a3.0383 3.0383 0 0 0-.574-1.414 2.97524 2.97524 0 0 0-1.134-.901 3.62273 3.62273 0 0 0-1.527-.314m5.83487 3.6349a3.12992 3.12992 0 0 1 .252-1.267 2.42407 2.42407 0 0 1 .79-1.011 2.55428 2.55428 0 0 1 2.665-.043 2.14011 2.14011 0 0 1 .763.96 3.51187 3.51187 0 0 1 .252 1.361h-4.722m5.918.874v-.503a5.1216 5.1216 0 0 0-.409-2.141 3.08973 3.08973 0 0 0-1.189-1.382 3.54522 3.54522 0 0 0-1.904-.483 3.59077 3.59077 0 0 0-1.987.53 3.373 3.373 0 0 0-1.255 1.504 5.52834 5.52834 0 0 0-.433 2.27 4.84023 4.84023 0 0 0 .476 2.235 3.36332 3.36332 0 0 0 1.33 1.421 3.8755 3.8755 0 0 0 1.971.492 3.99426 3.99426 0 0 0 1.484-.28 3.18232 3.18232 0 0 0 1.204-.83 2.71654 2.71654 0 0 0 .65-1.369h-1.181a1.67536 1.67536 0 0 1-.748 1.105 2.54286 2.54286 0 0 1-1.424.39 2.25216 2.25216 0 0 1-2.243-1.472 3.95337 3.95337 0 0 1-.268-1.487zM120.8812 80.0666a2.03239 2.03239 0 0 1-1.307-.401 1.35062 1.35062 0 0 1-.503-1.117 1.55144 1.55144 0 0 1 .319-1.019 1.87638 1.87638 0 0 1 .975-.579 6.68412 6.68412 0 0 1 1.689-.206l1.314-.022v1.447a1.3156 1.3156 0 0 1-.228.693 2.49234 2.49234 0 0 1-.582.614 2.97454 2.97454 0 0 1-.8.433 2.5902 2.5902 0 0 1-.877.157m-.346.921a3.58452 3.58452 0 0 0 1.633-.378 2.87609 2.87609 0 0 0 1.239-1.346l.087 1.567h1.054v-5.666a2.7754 2.7754 0 0 0-.353-1.453 2.18859 2.18859 0 0 0-1.044-.881 4.30244 4.30244 0 0 0-1.696-.295 4.401 4.401 0 0 0-1.676.287 2.41958 2.41958 0 0 0-1.086.827 2.44841 2.44841 0 0 0-.433 1.302h1.118a1.61161 1.61161 0 0 1 .704-1.122 2.40873 2.40873 0 0 1 1.311-.35 2.028 2.028 0 0 1 1.491.468 1.70712 1.70712 0 0 1 .484 1.271v.677l-1.574.048a5.56051 5.56051 0 0 0-2.995.708 2.29192 2.29192 0 0 0-.925 2.007 2.26241 2.26241 0 0 0 .335 1.251 2.16793 2.16793 0 0 0 .933.799 3.27626 3.27626 0 0 0 1.393.279m7.4699-.1575v-5.502a1.48121 1.48121 0 0 1 .315-.967 1.8786 1.8786 0 0 1 .834-.575 3.2422 3.2422 0 0 1 1.11-.188 1.94985 1.94985 0 0 1 1.393.496 2.015 2.015 0 0 1 .527 1.534v5.202h1.228v-5.312a3.26343 3.26343 0 0 0-.386-1.676 2.37267 2.37267 0 0 0-1.035-.964 3.27353 3.27353 0 0 0-1.436-.311 3.50632 3.50632 0 0 0-1.161.18 2.80625 2.80625 0 0 0-.874.481 2.437 2.437 0 0 0-.562.653v-1.189h-1.181v8.138zm10.71949-.8185a1.98971 1.98971 0 0 1-1.775-.893 4.41658 4.41658 0 0 1-.594-2.467 3.53329 3.53329 0 0 1 .665-2.377 2.20844 2.20844 0 0 1 1.743-.755 2.35677 2.35677 0 0 1 1.397.373 2.14423 2.14423 0 0 1 .767 1.075 5.2496 5.2496 0 0 1 .252 1.684 4.55554 4.55554 0 0 1-.559 2.57 2.16252 2.16252 0 0 1-1.896.79m-.189.976a3.45388 3.45388 0 0 0 1.251-.2 2.52134 2.52134 0 0 0 .827-.501 2.43965 2.43965 0 0 0 .48-.606 3.52787 3.52787 0 0 0 .236-.518l.126 1.668h.968v-11.695h-1.244v4.895a2.31222 2.31222 0 0 0-.291-.433 2.88595 2.88595 0 0 0-.535-.495 2.93038 2.93038 0 0 0-.803-.405 3.391 3.391 0 0 0-1.101-.162 2.9701 2.9701 0 0 0-2.976 1.987 6.026 6.026 0 0 0-.37 2.207 4.75549 4.75549 0 0 0 .929 3.185 3.14488 3.14488 0 0 0 2.503 1.073M148.64 80.83h1.228V69.45h-1.228zm4.90979.0001v-5.502a1.48127 1.48127 0 0 1 .315-.967 1.8786 1.8786 0 0 1 .834-.575 3.2422 3.2422 0 0 1 1.11-.188 1.94983 1.94983 0 0 1 1.393.496 2.015 2.015 0 0 1 .527 1.534v5.202h1.228v-5.312a3.26353 3.26353 0 0 0-.386-1.676 2.37274 2.37274 0 0 0-1.035-.964 3.27482 3.27482 0 0 0-1.437-.311 3.50443 3.50443 0 0 0-1.16.18 2.80648 2.80648 0 0 0-.874.481 2.45954 2.45954 0 0 0-.563.653v-1.189h-1.18v8.138zm9.7225-8.1378v-1.227a1.52429 1.52429 0 0 1 .185-.838.78237.78237 0 0 1 .704-.279h1.251v-.898h-1.44a1.90085 1.90085 0 0 0-1.44.496 2.03106 2.03106 0 0 0-.472 1.456v1.29h-1.779v.921h1.779v7.217h1.228v-7.217h2.046v-.921zm6.64231 7.3043a2.19668 2.19668 0 0 1-1.401-.426 2.45487 2.45487 0 0 1-.799-1.153 4.96421 4.96421 0 0 1-.256-1.656 4.72575 4.72575 0 0 1 .292-1.764 2.33532 2.33532 0 0 1 .838-1.096 2.28485 2.28485 0 0 1 1.326-.374 2.1649 2.1649 0 0 1 1.377.42 2.43944 2.43944 0 0 1 .787 1.153 5.09309 5.09309 0 0 1 .252 1.661 4.7745 4.7745 0 0 1-.287 1.755 2.3693 2.3693 0 0 1-.827 1.102 2.20843 2.20843 0 0 1-1.302.378m-.008.991a3.60662 3.60662 0 0 0 2.019-.53 3.2868 3.2868 0 0 0 1.215-1.476 5.46406 5.46406 0 0 0 .41-2.188 5.40152 5.40152 0 0 0-.453-2.341 3.23312 3.23312 0 0 0-1.267-1.434 3.69732 3.69732 0 0 0-1.916-.483 3.64236 3.64236 0 0 0-2.023.531 3.316 3.316 0 0 0-1.239 1.491 5.52325 5.52325 0 0 0-.422 2.236 5.24482 5.24482 0 0 0 .457 2.306 3.17131 3.17131 0 0 0 1.287 1.411 3.80719 3.80719 0 0 0 1.932.477m6.63159-.1575v-5.225a1.93853 1.93853 0 0 1 .193-.906 1.54312 1.54312 0 0 1 .527-.59 2.1477 2.1477 0 0 1 .744-.306 3.13851 3.13851 0 0 1 .842-.063 3.38176 3.38176 0 0 1 .35.023.99039.99039 0 0 1 .334.087v-1.196a.84675.84675 0 0 0-.298-.091 2.72977 2.72977 0 0 0-.386-.027 2.76044 2.76044 0 0 0-.948.169 2.30167 2.30167 0 0 0-1.421 1.459v-1.472h-1.165v8.138zm5.70861 0v-5.502a1.57283 1.57283 0 0 1 .303-.999 1.72945 1.72945 0 0 1 .756-.558 2.469 2.469 0 0 1 .892-.173 2.0001 2.0001 0 0 1 .803.173 1.70529 1.70529 0 0 1 .673.515 1.33283 1.33283 0 0 1 .271.854v5.69h1.228v-5.502a1.57047 1.57047 0 0 1 .319-1.045 1.71875 1.71875 0 0 1 .771-.532 2.69862 2.69862 0 0 1 .863-.153 2.13108 2.13108 0 0 1 .857.173 1.385 1.385 0 0 1 .653.609 2.533 2.533 0 0 1 .252 1.248v5.202h1.228v-5.312a3.90079 3.90079 0 0 0-.248-1.506 2.22648 2.22648 0 0 0-.649-.906 2.38324 2.38324 0 0 0-.862-.445 3.34981 3.34981 0 0 0-.886-.125 2.94107 2.94107 0 0 0-1.463.361 2.76685 2.76685 0 0 0-1.024.976 1.97766 1.97766 0 0 0-.59-.74 2.77049 2.77049 0 0 0-.849-.449 3.01365 3.01365 0 0 0-.921-.148 2.61575 2.61575 0 0 0-1.523.401 3.058 3.058 0 0 0-.902.944v-1.189h-1.18v8.138zm14.55659-.7635a2.03246 2.03246 0 0 1-1.307-.401 1.35064 1.35064 0 0 1-.503-1.117 1.5515 1.5515 0 0 1 .319-1.019 1.87639 1.87639 0 0 1 .975-.579 6.68427 6.68427 0 0 1 1.689-.206l1.314-.022v1.447a1.30691 1.30691 0 0 1-.228.693 2.49252 2.49252 0 0 1-.582.614 2.97439 2.97439 0 0 1-.8.433 2.59015 2.59015 0 0 1-.877.157m-.346.921a3.58451 3.58451 0 0 0 1.633-.378 2.87614 2.87614 0 0 0 1.239-1.346l.087 1.567h1.054v-5.666a2.7754 2.7754 0 0 0-.353-1.453 2.18859 2.18859 0 0 0-1.044-.881 4.30239 4.30239 0 0 0-1.696-.295 4.401 4.401 0 0 0-1.676.287 2.41963 2.41963 0 0 0-1.086.827 2.44832 2.44832 0 0 0-.433 1.302h1.118a1.61162 1.61162 0 0 1 .704-1.122 2.40872 2.40872 0 0 1 1.311-.35 2.02807 2.02807 0 0 1 1.491.468 1.70716 1.70716 0 0 1 .484 1.271v.677l-1.574.048a5.56053 5.56053 0 0 0-2.995.708 2.29192 2.29192 0 0 0-.925 2.007 2.26241 2.26241 0 0 0 .335 1.251 2.168 2.168 0 0 0 .933.799 3.27624 3.27624 0 0 0 1.393.279m10.0023-8.3033h-1.841v-2.336h-.913l-.292 2.344h-1.353v.921h1.322v5.289a2.95286 2.95286 0 0 0 .173 1.086 1.235 1.235 0 0 0 .602.654 2.705 2.705 0 0 0 1.208.22 6.12213 6.12213 0 0 0 .704-.036 2.09112 2.09112 0 0 0 .445-.09v-.85h-.834a2.84546 2.84546 0 0 1-.649-.059.45161.45161 0 0 1-.323-.276 1.92769 1.92769 0 0 1-.09-.689v-5.249h1.841zm3.0063.0077H208.27v8.138h1.196zm.04-3.234h-1.291v1.354h1.291zm5.48919 3.0781a3.62561 3.62561 0 0 0-2.018.534 3.35817 3.35817 0 0 0-1.248 1.492 5.43525 5.43525 0 0 0-.425 2.223 5.1696 5.1696 0 0 0 .468 2.322 3.23357 3.23357 0 0 0 1.303 1.409 3.83741 3.83741 0 0 0 1.92.472 3.63668 3.63668 0 0 0 1.515-.308 2.96977 2.96977 0 0 0 1.137-.885 2.84522 2.84522 0 0 0 .575-1.381h-1.11a1.80144 1.80144 0 0 1-.346.807 1.95947 1.95947 0 0 1-.72.583 2.33925 2.33925 0 0 1-1.027.215 2.169 2.169 0 0 1-1.885-.885 3.97322 3.97322 0 0 1-.634-2.357 3.60975 3.60975 0 0 1 .697-2.435 2.29387 2.29387 0 0 1 1.806-.791 2.35014 2.35014 0 0 1 1.027.212 1.89391 1.89391 0 0 1 .72.579 1.87183 1.87183 0 0 1 .355.822h1.125a3.0389 3.0389 0 0 0-.574-1.413 2.9752 2.9752 0 0 0-1.134-.901 3.62279 3.62279 0 0 0-1.527-.314m7.92081 8.4515a4.23942 4.23942 0 0 0 1.665-.291 2.27407 2.27407 0 0 0 1.034-.826 2.24477 2.24477 0 0 0 .354-1.268 2.31348 2.31348 0 0 0-.09-.621 1.9025 1.9025 0 0 0-.299-.61 2.14274 2.14274 0 0 0-.559-.519 2.96934 2.96934 0 0 0-.886-.374l-1.715-.448a3.00853 3.00853 0 0 1-1.031-.438.865.865 0 0 1-.354-.735 1.16249 1.16249 0 0 1 .516-1.047 2.406 2.406 0 0 1 1.341-.339 1.95989 1.95989 0 0 1 1.259.366 1.44332 1.44332 0 0 1 .535.989h1.118a2.10822 2.10822 0 0 0-.834-1.717 3.43145 3.43145 0 0 0-2.07-.574 4.01236 4.01236 0 0 0-1.676.307 2.24728 2.24728 0 0 0-1.004.841 2.28365 2.28365 0 0 0-.334 1.236 1.74409 1.74409 0 0 0 .574 1.373 3.68151 3.68151 0 0 0 1.527.737l1.755.448a1.61776 1.61776 0 0 1 .822.426 1.07738 1.07738 0 0 1 .272.771 1.13306 1.13306 0 0 1-.527 1.027 2.57163 2.57163 0 0 1-1.393.334 2.75822 2.75822 0 0 1-1.027-.178 1.84355 1.84355 0 0 1-.744-.515 1.8815 1.8815 0 0 1-.402-.826h-1.141a2.70554 2.70554 0 0 0 .579 1.398 2.74588 2.74588 0 0 0 1.172.809 4.44357 4.44357 0 0 0 1.563.264"/>
    <path d="M125.6749 40.9249a4.606 4.606 0 0 1-.368 1.932 2.58271 2.58271 0 0 1-1.17 1.232 5.3819 5.3819 0 0 1-4.23-.006 2.57256 2.57256 0 0 1-1.164-1.26 4.928 4.928 0 0 1-.361-1.99v-5.928h1.633v6.092a2.17122 2.17122 0 0 0 .541 1.626 2.0176 2.0176 0 0 0 1.466.526 2.37733 2.37733 0 0 0 1.082-.231 1.58763 1.58763 0 0 0 .709-.704 2.63089 2.63089 0 0 0 .249-1.217v-6.092h1.613zm8.2749.7546l-4.643-6.775h-1.561v9.483h1.593v-6.958l4.769 6.958h1.436v-9.483h-1.594zm3.8052 2.7075h1.593v-9.483h-1.593zm9.84479-9.4825l-2.695 7.639-2.656-7.639h-1.541l3.273 9.483h1.849l3.312-9.483zm9.27211 9.4828v-1.383l-4.768-.007v-2.716h4.125v-1.35h-4.112v-2.656h4.656l.007-1.371h-6.27v9.483zm3.28539-5.115v-3.123h2.099a1.86655 1.86655 0 0 1 1.246.401 1.40176 1.40176 0 0 1 .472 1.134 1.42951 1.42951 0 0 1-.508 1.168 2.16263 2.16263 0 0 1-1.413.42zm3.692.997a3.831 3.831 0 0 0 .85-.528 2.44023 2.44023 0 0 0 .646-.84 2.92282 2.92282 0 0 0 .249-1.276 2.88908 2.88908 0 0 0-.341-1.432 2.2724 2.2724 0 0 0-1.046-.951 4.15765 4.15765 0 0 0-1.794-.338h-3.849v9.483h1.593v-3.849h2.204l1.633 3.849h1.666zm6.89061 4.2499a5.03757 5.03757 0 0 0 1.964-.351 3.06381 3.06381 0 0 0 1.286-.954 2.1847 2.1847 0 0 0 .455-1.345 4.02383 4.02383 0 0 0-.085-.801 2.458 2.458 0 0 0-.341-.822 2.39749 2.39749 0 0 0-.741-.719 3.66125 3.66125 0 0 0-1.279-.471l-1.706-.381a2.63524 2.63524 0 0 1-1.143-.481.97558.97558 0 0 1-.306-.746 1.16032 1.16032 0 0 1 .142-.574 1.27186 1.27186 0 0 1 .396-.429 1.94126 1.94126 0 0 1 .597-.269 2.82328 2.82328 0 0 1 .735-.092 3.02143 3.02143 0 0 1 .957.145 1.54253 1.54253 0 0 1 .712.479 1.63489 1.63489 0 0 1 .337.898h1.614a2.59662 2.59662 0 0 0-.423-1.411 2.90067 2.90067 0 0 0-1.227-1.026 4.63719 4.63719 0 0 0-1.99-.383 4.46154 4.46154 0 0 0-1.81.351 3.011 3.011 0 0 0-1.263.989 2.46142 2.46142 0 0 0-.455 1.499 2.29557 2.29557 0 0 0 .629 1.66 3.19 3.19 0 0 0 1.672.839l1.745.38a3.93239 3.93239 0 0 1 .849.28 1.50629 1.50629 0 0 1 .568.443 1.13919 1.13919 0 0 1-.076 1.396 1.75381 1.75381 0 0 1-.754.459 3.376 3.376 0 0 1-1.065.157 2.90066 2.90066 0 0 1-1.014-.17 1.971 1.971 0 0 1-.771-.498 1.68328 1.68328 0 0 1-.413-.807h-1.652a2.59615 2.59615 0 0 0 .433 1.204 3.10819 3.10819 0 0 0 .888.859 4.14864 4.14864 0 0 0 1.191.518 5.25425 5.25425 0 0 0 1.344.174m5.5061-.1322h1.594v-9.483h-1.594zm5.90608-8.0467v8.047h1.601v-8.047h2.846v-1.436h-7.398v1.436zm11.66752-1.4358l-2.301 4.078-2.342-4.078h-1.731l3.266 5.469v4.014h1.594v-4.007l3.259-5.476zm9.43769 8.27571a2.39573 2.39573 0 0 1-1.335-.364 2.32387 2.32387 0 0 1-.868-1.134 5.44039 5.44039 0 0 1-.309-1.997 5.6336 5.6336 0 0 1 .309-2.029 2.40269 2.40269 0 0 1 .868-1.169 2.30209 2.30209 0 0 1 3.519 1.161 5.80061 5.80061 0 0 1 .302 2.037 5.61375 5.61375 0 0 1-.299 1.997 2.272 2.272 0 0 1-.856 1.134 2.37535 2.37535 0 0 1-1.331.364m0 1.339a4.23466 4.23466 0 0 0 2.25-.582 3.78039 3.78039 0 0 0 1.462-1.665 6.91178 6.91178 0 0 0-.006-5.236 3.855 3.855 0 0 0-1.466-1.68 4.189 4.189 0 0 0-2.24-.584 4.25756 4.25756 0 0 0-2.253.584 3.869 3.869 0 0 0-1.485 1.68 6.82153 6.82153 0 0 0-.004 5.239 3.81427 3.81427 0 0 0 1.476 1.666 4.28749 4.28749 0 0 0 2.266.578m6.005-.1317h1.62v-4.072h4.04v-1.333h-4.04v-2.728h4.578l.006-1.35h-6.204zm14.57249-10.2772l1.653-1.606h-1.338l-.885.944-.978-.944h-1.265l1.692 1.606zm2.807 10.277v-1.371h-4.997l5.043-7.338v-.774h-6.972v1.358h4.709l-4.984 7.312v.813zm1.56022-.0003h1.593V34.904h-1.593zm3.79939.0005h5.902v-1.377h-4.283v-8.106h-1.613zm7.3966-.0005h1.594V34.904h-1.594zm10.00271-2.7075l-4.643-6.775h-1.561v9.483h1.593v-6.958l4.769 6.958h1.436v-9.483h-1.594zm7.32278-5.22119l1.424 4.132h-2.86zm-2.669 7.929l.866-2.38h3.62l.846 2.38h1.6l-3.404-9.483h-1.724l-3.411 9.483z"/>
    <path d="M102.057 32.5h.919v48.335h-.919z"/>
    <path d="M34.6565 38.36221c-1.851 0-3.787.202-4.751 1.12a2.10655 2.10655 0 0 0-.64 1.617 5.59694 5.59694 0 0 0 1.361 2.505c9.328 11.223 9.708 27.914 9.851 34.197a22.18266 22.18266 0 0 0 .103 2.228 4.81192 4.81192 0 0 0 7.962 2.87c8.018-7.437 19.734-7.949 28.288-8.324a46.0802 46.0802 0 0 0 7.966-.746l.158-.046a1.637 1.637 0 0 0 1.186-1.56 1.6009 1.6009 0 0 0-.643-1.29c-13.424-10.48-10.305-22.113-8.026-30.608l.04-.151c.765-2.854 1.426-5.318 1.269-7.199a4.22881 4.22881 0 0 0-1.384-2.926 2.97234 2.97234 0 0 0-2.217-.774 4.634 4.634 0 0 0-1.952.55c-18.634 9.478-29.52 8.942-36.026 8.622l-.214-.01c-.698-.035-1.506-.075-2.331-.075m10.691 46.677a5.70845 5.70845 0 0 1-5.671-4.843 20.6885 20.6885 0 0 1-.116-2.374c-.142-6.196-.517-22.653-9.634-33.625-.157-.182-1.58-1.867-1.58-3.098a3.0175 3.0175 0 0 1 .926-2.282c1.679-1.598 5.197-1.425 7.76-1.297l.213.01c6.412.316 17.151.842 35.56-8.52a5.56208 5.56208 0 0 1 2.304-.651 3.85 3.85 0 0 1 2.892.998 5.1353 5.1353 0 0 1 1.692 3.509c.173 2.073-.508 4.61-1.296 7.547l-.04.15c-2.212 8.246-5.24 19.541 7.661 29.612a2.53674 2.53674 0 0 1-.806 4.489h.001c-.001 0-.191.056-.214.06a45.21292 45.21292 0 0 1-8.062.765c-8.479.371-19.999.875-27.761 8.076a5.75006 5.75006 0 0 1-3.829 1.474M80.2782 74.8787c-16.316 0-32.75-9.816-48.919-29.238-.564-.678-.971-1.168-1.221-1.434l.43-.404c.262.279.675.775 1.245 1.461 17.414 20.918 35.094 30.607 52.581 28.813l.06.587a40.80922 40.80922 0 0 1-4.176.215m-1.737-11.8006c-15.531-23.988-43.298-25.369-46.485-24.685l-.123-.578c2.085-.446 9.922-.223 19.596 3.349a55.26522 55.26522 0 0 1 27.508 21.594zM43.7475 84.5607c-.115-.474-2.632-11.802 13.629-28.191 20.273-20.431 19.526-26.797 19.517-26.859l.901-.175c.054.262 1.088 6.664-19.766 27.681-15.859 15.983-13.414 27.217-13.388 27.328z"/>
  </g>
</svg>
